<?xml version="1.0" encoding="utf-8"?>
<!-- Generator: Adobe Illustrator 27.9.0, SVG Export Plug-In . SVG Version: 6.00 Build 0)  -->
<svg version="1.1" id="Layer_1" xmlns="http://www.w3.org/2000/svg" xmlns:xlink="http://www.w3.org/1999/xlink" x="0px" y="0px"
	 viewBox="0 0 65.1999969 12.3999996" style="enable-background:new 0 0 65.1999969 12.3999996;" xml:space="preserve">
<style type="text/css">
	.st0{fill:#BE1D2C;}
	
		.st1{clip-path:url(#SVGID_00000093155858314680911140000015454315592417896893_);fill:url(#SVGID_00000085243219001420068730000005816348073502210688_);}
	.st2{fill:#25AAE1;}
	
		.st3{clip-path:url(#SVGID_00000141433272585436585210000011146067700336670606_);fill:url(#SVGID_00000035516376621541580640000005716787809629222335_);}
	.st4{fill:#B7252A;}
	.st5{fill:#2289C1;}
	.st6{fill:#CAC7C5;}
	.st7{fill:#1D1D1B;}
</style>
<g>
	<path class="st0" d="M48.995491,12.4380751c-4.9658356,0-9.9318352,0.020752-14.8975143-0.0070782
		c-3.5235424-0.0197859-7.0470829-0.0049868-10.5706253-0.0263815c-0.8900528-0.0053082-1.6765137-0.3537369-2.4142303-0.8220081
		c-1.0245361-0.6503677-1.8283672-1.5492687-2.6828709-2.3909025c-0.8945599-0.8812065-1.8118-1.740696-2.6802988-2.6468349
		c-0.6984653-0.7287087-1.3370914-1.5146837-2.0059605-2.2720256c-0.5662384-0.6411989-1.106576-1.3054013-1.7098122-1.9136229
		c-0.6979847-0.7036144-1.5335064-1.1845936-2.4555721-1.529484c-0.1024714-0.0384459-0.2823153-0.0292769-0.281189-0.1545888
		c0.0012865-0.1246689,0.1795235-0.1212901,0.2844048-0.152176c1.3959694-0.4110043,2.6630869-0.0887966,3.8512211,0.68254
		C14.50632,1.90237,15.3228607,2.8643303,16.1548443,3.8129377c0.8683357,0.9901099,1.7540493,1.9649382,2.6188469,2.9581046
		c0.4891853,0.5615716,0.9635696,1.1339211,1.5019779,1.6523814c1.2785397,1.2310829,2.5585251,2.455409,4.1705322,3.2610092
		c0.4021568,0.2010784,0.8138065,0.2877836,1.2647038,0.2877836c11.7967205-0.0035391,23.5936031-0.0045042,35.3903275,0.0099735
		c1.0343475,0.0012875,2.0696602,0.0127087,3.1046524,0.0246124c0.1294937,0.0014477,0.2414551,0.0093298,0.2496567,0.1896572
		c0.0080414,0.1758223-0.0805893,0.2252073-0.2289047,0.2306767c-0.1000519,0.0037003-0.2001114,0.0104561-0.3000107,0.0104561
		C58.9495277,12.4380751,53.9725914,12.4380751,48.995491,12.4380751"/>
</g>
<g>
	<defs>
		<path id="SVGID_1_" d="M23.8455868,0.9692699c-0.4526672,0.0862229-0.8987427,0.2108918-1.3156986,0.412131
			c-1.007967,0.4861265-1.8182335,1.2127438-2.5612602,2.0415087c-0.6165867,0.6876886-1.1657715,1.4263699-1.7525997,2.1360962
			c-0.0772152,0.0931396-0.0984497,0.1861181-0.0159264,0.285049c0.3413525,0.4095564,0.6864014,0.8163781,1.0238914,1.2291522
			c0.113409,0.1385026,0.1968975,0.1031127,0.2900372-0.0146384c0.6482773-0.8194351,1.2877083-1.6462693,1.9491768-2.4549265
			c0.7912827-0.9671071,1.5542545-1.962847,2.537611-2.754292c0.4465561-0.3595283,0.9026031-0.6037176,1.5285206-0.6014655
			C31.8930759,1.270566,57.7545242,1.2594664,64.1626587,1.265258c0.2117004,0.0001608,0.3336334-0.0493847,0.2747574-0.2779715
			c-0.044075-0.1705141-0.2081604-0.1280464-0.3239822-0.1275641c-0.7010384,0.0028964-38.0566254,0.0381244-38.7168045-0.0247727
			c-0.1034355-0.0099729-0.2071915-0.0143163-0.3109493-0.0143163C24.6711349,0.8206334,24.2544994,0.8912514,23.8455868,0.9692699"
			/>
	</defs>
	<clipPath id="SVGID_00000059268201698628856410000000024450024246673538_">
		<use xlink:href="#SVGID_1_"  style="overflow:visible;"/>
	</clipPath>
	
		<linearGradient id="SVGID_00000092436835236961550750000009802392885340266914_" gradientUnits="userSpaceOnUse" x1="-263.4083557" y1="428.244812" x2="-263.247467" y2="428.244812" gradientTransform="matrix(287.8528442 0 0 -287.8528442 75840.9609375 123275.5)">
		<stop  offset="0" style="stop-color:#5BBAE9"/>
		<stop  offset="0.0040909" style="stop-color:#5BBAE9"/>
		<stop  offset="0.0850354" style="stop-color:#4CADDE"/>
		<stop  offset="0.2221947" style="stop-color:#399DD1"/>
		<stop  offset="0.3836697" style="stop-color:#2C92C8"/>
		<stop  offset="0.5905858" style="stop-color:#248BC3"/>
		<stop  offset="1" style="stop-color:#2289C1"/>
	</linearGradient>
	
		<rect x="18.1175785" y="0.8167711" style="clip-path:url(#SVGID_00000059268201698628856410000000024450024246673538_);fill:url(#SVGID_00000092436835236961550750000009802392885340266914_);" width="46.3787155" height="6.3949385"/>
</g>
<g>
	<path class="st2" d="M0.1615766,1.2918164c0.5109007-0.3991008,1.0645908-0.6442547,1.6712049-0.7657069
		c1.2204671-0.24435,2.3320301,0.0440767,3.4001596,0.651173c0.7327309,0.4164732,1.2454009,1.0621761,1.8492804,1.61297
		c0.6656508,0.6072571,1.265348,1.2793415,1.8600583,1.9552872c0.8142881,0.9259253,1.6239109,1.8560338,2.4449549,2.7760081
		c0.8195963,0.9182038,1.7406988,1.6991925,2.9381628,2.089767c0.1367331,0.0445595,0.2725,0.0926571,0.4073038,0.1426859
		c0.0397339,0.0147991,0.0897617,0.0307245,0.086545,0.0879917c-0.0028963,0.0537281-0.0474558,0.0693321-0.0904055,0.0846138
		c-1.2050238,0.4301472-2.3781977,0.4106827-3.517911-0.2247257c-0.7917681-0.441246-1.4506626-1.0359554-2.0481071-1.7075572
		c-0.744956-0.8377733-1.4903951-1.6752248-2.2385683-2.5099416C6.2906151,4.77739,5.6418548,4.0837502,5.0194759,3.366946
		c-0.742382-0.8551466-1.6198895-1.5100187-2.6839976-1.906384C1.9812582,1.3286533,1.6111124,1.2380883,1.238554,1.205272
		C0.9859991,1.1830728,0.7241143,1.2559441,0.4676988,1.2950331C0.3750417,1.3091898,0.2862454,1.3431317,0.1615766,1.2918164"/>
</g>
<g>
	<defs>
		<path id="SVGID_00000075877463602832639940000010756175368571589533_" d="M4.6726556,3.5388916
			c-0.1539454,0.2313206-0.3014569,0.4669845-0.460711,0.6947663C3.8247471,4.7875085,3.4858091,5.3772311,2.9747477,5.8384242
			C2.5740378,6.1997223,2.1120396,6.4408555,1.6048388,6.6075091C1.5419414,6.6282606,1.4673009,6.6543202,1.4677836,6.733304
			c0.0003217,0.0638623,0.0719059,0.079627,0.1208081,0.1006999C2.05059,7.0345993,2.5341439,7.1420555,2.9768386,7.1719761
			c0.7967544-0.0114207,1.4102855-0.3003306,1.9429026-0.797718C5.3635621,5.9597149,5.6540804,5.427259,6.037899,4.9671922
			c0.0813971-0.0973225,0.0323339-0.1711583-0.0368376-0.2474074C5.6391201,4.3206844,5.2787871,3.9201362,4.9174891,3.5203922
			c-0.041503-0.045846-0.0818791-0.0686882-0.120647-0.0686882C4.7529263,3.451704,4.7112627,3.4809809,4.6726556,3.5388916"/>
	</defs>
	<clipPath id="SVGID_00000035495419207242994240000010727924394476935556_">
		<use xlink:href="#SVGID_00000075877463602832639940000010756175368571589533_"  style="overflow:visible;"/>
	</clipPath>
	
		<linearGradient id="SVGID_00000120545529899321450190000013671816062687389093_" gradientUnits="userSpaceOnUse" x1="-255.024826" y1="440.4493713" x2="-254.8639526" y2="440.4493713" gradientTransform="matrix(28.6732044 0 0 -28.6732044 7313.8461914 12634.40625)">
		<stop  offset="0" style="stop-color:#AB1F2A"/>
		<stop  offset="0.0040909" style="stop-color:#AB1F2A"/>
		<stop  offset="0.432156" style="stop-color:#BF2928"/>
		<stop  offset="1" style="stop-color:#DF3926"/>
	</linearGradient>
	
		<rect x="1.4673009" y="3.451704" style="clip-path:url(#SVGID_00000035495419207242994240000010727924394476935556_);fill:url(#SVGID_00000120545529899321450190000013671816062687389093_);" width="4.6519957" height="3.7202723"/>
</g>
<g>
	<path class="st4" d="M8.2953215,0.6853473C8.734477,0.7007902,9.157547,0.8780605,9.5833511,1.0329721
		c0.155715,0.056784,0.0152817,0.1299769-0.0384464,0.1703534C9.2569599,1.4196861,8.9551811,1.6188339,8.6765661,1.8464549
		c-0.3395815,0.277488-0.6547117,0.5837705-0.9381518,0.9199736c-0.1212912,0.1438115-0.216361,0.1986656-0.3797975,0.025738
		C7.0270782,2.4414856,6.6714096,2.1133256,6.3208895,1.780822c-0.0920134-0.087509-0.0820398-0.155875-0.0006433-0.2371114
		C6.8592978,1.0054637,7.5148144,0.7323192,8.2953215,0.6853473"/>
	<path class="st5" d="M14.5165176,9.4967327c-0.099575-0.0490637-0.1407557-0.0965176-0.0226812-0.1718016
		c0.6730499-0.4285383,1.2679205-0.9505377,1.82129-1.5220828c0.0077209-0.0080438,0.0176945-0.0136738,0.0252552-0.0217171
		c0.260437-0.2742705,0.2607594-0.2747536,0.5244122,0.0054693c0.2697678,0.286819,0.5366383,0.5766931,0.8094635,0.860455
		c0.0970001,0.1008606,0.1151772,0.1830616-0.0117435,0.2684803c-0.5625381,0.3783484-1.1530647,0.6833448-1.8479929,0.7267771
		C15.7046509,9.6490698,14.823122,9.6479435,14.5165176,9.4967327"/>
	<path class="st6" d="M12.1682882,5.129406c0,0.7616854-0.0035391,1.5233703,0.0027342,2.2848945
		c0.0012875,0.1648841-0.050993,0.2256904-0.2200594,0.2255292c-0.1677799-0.0001607-0.2218313-0.0579104-0.2213478-0.2240815
		c0.0045042-1.5343089,0.0045042-3.068778,0-4.6032476c-0.0004835-0.1648846,0.0506716-0.225369,0.2198992-0.2248859
		c0.166976,0.0004823,0.2231178,0.0564625,0.2216692,0.2234383C12.164588,3.5838366,12.1682882,4.3566213,12.1682882,5.129406"/>
	<path class="st6" d="M10.5644865,3.7356427c0,0.6947663-0.0045042,1.389693,0.0030556,2.0842984
		c0.0019302,0.1766272-0.0728703,0.2137866-0.2303553,0.214591c-0.1613455,0.0009651-0.2115345-0.0590367-0.2110519-0.2161999
		c0.0041819-1.3951626,0.0041819-2.7903244-0.0001612-4.1854877c-0.0004826-0.1589322,0.0534067-0.2145908,0.2129822-0.21443
		c0.1594152,0.0001607,0.2305164,0.0416639,0.2285862,0.2161998C10.5601425,2.3348498,10.5644865,3.0352464,10.5644865,3.7356427"/>
	<path class="st6" d="M1.6787714,3.8607779c0-0.6892967,0.0036998-1.3785937-0.0027348-2.0678902
		C1.6745889,1.628003,1.7405427,1.5828009,1.8944885,1.584087c0.1492809,0.0011266,0.2234389,0.0363559,0.2227951,0.205261
		c-0.004504,1.3785943-0.004504,2.7571878,0.0001609,4.1357813c0.0004828,0.1656885-0.0665972,0.2086391-0.219417,0.2083173
		C1.7484249,6.1329641,1.6742672,6.0980568,1.6758759,5.928668C1.6827929,5.239532,1.6787714,4.5500746,1.6787714,3.8607779"/>
	<path class="st6" d="M13.7722206,6.7316308c0,0.68431-0.004343,1.3686194,0.0030565,2.0527692
		c0.0019302,0.1726055-0.0646677,0.2194166-0.2264948,0.2189341c-0.1573238-0.0006437-0.215395-0.0511541-0.2149124-0.212821
		c0.0045042-1.3740897,0.0046644-2.7481794,0-4.1224294c-0.0006447-0.1637588,0.062254-0.2087998,0.217164-0.2104087
		c0.1648855-0.0016084,0.225852,0.051476,0.224082,0.2211862C13.7680387,5.3630104,13.7722206,6.0473204,13.7722206,6.7316308"/>
	<path class="st6" d="M3.2774272,3.542752c0-0.2892313,0.0057909-0.5786233-0.0020912-0.867533
		c-0.0046651-0.1695487,0.0896008-0.1851525,0.222795-0.187083c0.1397898-0.0019305,0.2186129,0.0287945,0.2166824,0.1925523
		C3.70854,3.2422605,3.7080574,3.8041539,3.7143309,4.365726c0.002574,0.2256904-0.1486373,0.187727-0.2853708,0.1930351
		C3.2655234,4.5651956,3.2610192,4.4749513,3.267293,4.3432045C3.27984,4.0769773,3.2709925,3.8096235,3.2709925,3.542752
		C3.2732449,3.542752,3.275336,3.542752,3.2774272,3.542752"/>
	<path class="st6" d="M8.5247116,3.0422442c0-0.283601,0.0041828-0.5672021-0.0016079-0.8508031
		C8.5197248,2.0262349,8.6205864,2.0199611,8.7423592,2.0199611c0.1217737-0.0001609,0.2203817,0.0064347,0.2190952,0.1716406
		c-0.004343,0.5670414-0.004343,1.1344044,0,1.7014458c0.0012865,0.1648839-0.0973215,0.171962-0.2192554,0.171962
		c-0.1217737-0.0001612-0.2224741-0.0070782-0.2190952-0.171962C8.5288944,3.6094463,8.5247116,3.3258452,8.5247116,3.0422442"/>
	<path class="st6" d="M15.375638,7.4489179c0,0.2834401-0.0041828,0.5672021,0.0016088,0.8504815
		c0.0033779,0.1644011-0.0966797,0.1724443-0.2189341,0.1724443c-0.1217747,0-0.2203827-0.0067558-0.2190952-0.1716404
		c0.004343-0.5668802,0.004343-1.1340823,0-1.7009625c-0.0014486-0.1645622,0.0958738-0.1727667,0.2184505-0.1722836
		c0.1214523,0.0004821,0.2227955,0.0062733,0.2195787,0.1714792C15.3716164,6.8817158,15.375638,7.1653171,15.375638,7.4489179"/>
	<path class="st7" d="M57.7061195,4.2060375h1.4550095c0.108902,0.3493943,0.1930313,0.7049007,0.2887459,1.0570292
		c0.0963554,0.353898,0.1909447,0.7082787,0.2856941,1.0624981c0.0945892,0.3535767,0.18853,0.707314,0.2953415,1.0615335
		c0.2987213-1.0541334,0.5684891-2.1135755,0.8519287-3.1652961c0.1290131-0.0283117,1.2536049-0.0349069,1.4554901-0.0101342
		c0.0344276,0.0281506,0.0278282,0.069171,0.0299187,0.106813c0.0020943,0.0387673,0.0011292,0.077857,0.0011292,0.116786
		c0.0001602,1.4577379,0.0003204,2.9154763-0.0004845,4.373054c0,0.0659533,0.0106201,0.133194-0.018177,0.2068691
		c-0.1430054,0.0368376-0.2929306,0.0160866-0.4407654,0.0168905c-0.1489563,0.0009651-0.2993622,0.0159254-0.4420471-0.0128689
		c-0.007885-0.0117435-0.011261-0.0159254-0.0138359-0.0205908c-0.0025749-0.0048256-0.0057907-0.0099735-0.0064354-0.0152817
		c-0.0020905-0.016408-0.0041809-0.0331383-0.0041809-0.0497065c-0.0016098-1.1628771-0.0030594-2.325593-0.0048256-3.4884696
		c0-0.0036998-0.00354-0.0073996-0.0162506-0.0324941c-0.3146477,1.2090445-0.6088676,2.4050584-0.9137001,3.5928688
		c-0.1309433,0.0337811-0.7196999,0.041503-0.945713,0.013835c-0.0357094-0.0456858-0.0432739-0.106492-0.0579071-0.1648846
		c-0.2762032-1.0937061-0.5527267-2.1872511-0.8286057-3.2811174c-0.0120659-0.0480981-0.0202713-0.0968394-0.0638618-0.161345
		v3.5938334c-0.1360931,0.0329771-0.6841545,0.0402164-0.8932762,0.0151215
		c-0.0363579-0.0283117-0.0292778-0.0694923-0.031044-0.1074562c-0.0017738-0.0332985-0.0008049-0.0667582-0.0008049-0.1000566
		c0-1.4633679,0-2.9265752,0.0003166-4.3899436C57.6877785,4.3574095,57.6824722,4.2904911,57.7061195,4.2060375"/>
	<path class="st7" d="M37.0055389,6.2343554c0.4087524,0,0.7975616,0.0102959,1.1860428-0.0119033
		c0.0833282-0.0048265,0.1668167-0.0093307,0.2495003-0.0197864c0.4465561-0.0563016,0.6654892-0.5840926,0.3913803-0.9431381
		c-0.1129303-0.147994-0.2713776-0.2116957-0.450901-0.2147522c-0.4225883-0.0073991-0.8454971-0.0077214-1.2682419-0.0099735
		C37.07584,5.0346413,37.0341759,5.0282063,37.0055389,5.069066V6.2343554z M36.0162315,4.2211585
		c0.05019-0.0273461,0.0897636-0.0223598,0.1283722-0.0223598c0.7459183,0.0011258,1.4920006,0.0017695,2.2379227,0.0048256
		c0.2174873,0.0009651,0.4341698,0.025095,0.6452217,0.0768924c0.5091324,0.1246691,0.790802,0.4698806,0.9058189,0.9645329
		c0.0563011,0.2425814,0.0432739,0.4861279-0.0252533,0.7262959c-0.098774,0.3458543-0.3111115,0.596961-0.6313896,0.7586284
		c-0.1399498,0.0706186-0.2887459,0.1151776-0.4410858,0.1499238c-0.025898,0.0059524-0.0569458,0.0022521-0.0702972,0.0349078
		c0.0074005,0.0379634,0.042469,0.0476151,0.0686913,0.0649886c0.2448311,0.1619878,0.4431725,0.3691792,0.6109543,0.6090255
		c0.2105713,0.3011351,0.398941,0.6164265,0.5961609,0.9259262c0.1013412,0.1589327,0.200592,0.3191519,0.3025818,0.4817839
		C40.320282,9.011651,40.307251,9.0272541,40.2940598,9.0272541c-0.3670883,0.0014477-0.7341766,0.0011263-1.093544,0.0011263
		c-0.0643463-0.036355-0.089119-0.0947485-0.1227379-0.1447763c-0.2392044-0.3551855-0.476799-0.7116566-0.7161636-1.0668421
		c-0.1119614-0.1660099-0.2261734-0.3305726-0.352932-0.4861269c-0.1399498-0.1718011-0.3130379-0.2768445-0.5393715-0.2951827
		c-0.149765-0.0120654-0.2980843-0.0212345-0.4518661-0.0083652c-0.029438,0.0638623-0.0188217,0.1256337-0.0188217,0.1848311
		c-0.0009651,0.5396948-0.0001602,1.0793891-0.0012856,1.6189227c0,0.0601625,0.0123863,0.1220951-0.0228424,0.1959305
		c-0.308857,0.0127087-0.6241493,0.0080433-0.9262505,0.0024128c-0.0508347-0.0369978-0.0447197-0.0780182-0.0461655-0.1159821
		c-0.0014496-0.038928-0.0006447-0.0780182-0.0006447-0.1169472c0-1.4521074-0.0001602-2.9042153,0.0003204-4.3563232
		C36.0017548,4.3683481,35.9937134,4.2957988,36.0162315,4.2211585"/>
	<path class="st7" d="M56.7307968,5.5462818c-0.3041916,0.0746403-0.6204491,0.1217728-0.9231949,0.1779141
		c-0.0593567-0.0423074-0.0659485-0.0945873-0.0862198-0.1391463c-0.1706772-0.37288-0.4657021-0.5704193-0.8696251-0.6083827
		c-0.1664963-0.0157647-0.3329887-0.0114212-0.4980354,0.0246119c-0.499157,0.1090651-0.8101006,0.4158297-0.9535904,0.9000268
		c-0.0443993,0.1497636-0.0672417,0.3035483-0.0752869,0.459424c-0.0159264,0.3069263-0.0065918,0.6122437,0.0773773,0.9100008
		c0.1388206,0.4924006,0.437706,0.8300519,0.9478035,0.9540763c0.2025223,0.0492239,0.4095573,0.0509939,0.6132088,0.0123863
		c0.304512-0.0577497,0.5828094-0.1798439,0.828125-0.364193c0.0324936-0.1433287,0.0324936-0.4401202-0.000164-0.5874705
		C55.73843,7.2549658,55.676178,7.2647781,55.616497,7.2644563c-0.2393646-0.0011258-0.4787292,0.0003219-0.7179337-0.0009651
		c-0.0603218-0.0003214-0.1227379,0.0102954-0.1795197-0.0196247c-0.0289536-0.1331949-0.0295982-0.6479549-0.0012894-0.7912841
		c0.1283722-0.0299206,1.9170074-0.0331373,2.0868797-0.0017695c0.0295982,0.1553936,0.0096512,0.3159342,0.012867,0.4751883
		c0.0030594,0.1611853,0.000164,0.3225303,0,0.4838753c-0.0003242,0.1557155-0.0006409,0.3114305-0.0006409,0.4671454
		c-0.000164,0.1610231-0.000164,0.3218861-0.000164,0.4682713c-0.0627327,0.0896006-0.1359291,0.1413984-0.2100868,0.189496
		c-0.7814713,0.5075226-1.6287384,0.7090836-2.5464592,0.5025358c-0.7864571-0.1767883-1.328083-0.6542292-1.5935059-1.4196138
		c-0.2515907-0.7258129-0.253521-1.4567728,0.0545273-2.1656947c0.3468246-0.7983618,0.9719353-1.2325306,1.8391495-1.3193965
		c0.3743286-0.0374808,0.7455978-0.0212336,1.1099548,0.0717449c0.6400719,0.1632757,1.0586357,0.5630198,1.2495842,1.1971402
		c0.0094872,0.0316901,0.0155983,0.0646667,0.0210686,0.0973225C56.7425385,5.5086398,56.7367477,5.5195785,56.7307968,5.5462818"/>
	<path class="st7" d="M46.7372856,8.1888056c0.0183334,0.0038605,0.0394096,0.0119038,0.0603218,0.0119038
		c0.361618,0.0001612,0.7238846,0.020752,1.0845337-0.0238075c0.3408737-0.0421457,0.5961647-0.2022042,0.7229233-0.5348687
		c0.0537262-0.1407547,0.0904007-0.2856917,0.1127625-0.4348116c0.0435944-0.2934141,0.0411835-0.5884361,0.0283089-0.8829761
		c-0.011261-0.2560925-0.0503464-0.5084863-0.1648827-0.7439899c-0.1278877-0.2626882-0.3331451-0.4267688-0.6148148-0.4948134
		c-0.0860634-0.0209122-0.1755028-0.035872-0.2638168-0.0382848c-0.2893906-0.0080438-0.5787849-0.0096521-0.8683357-0.0123873
		c-0.0374832-0.0003214-0.0791473-0.0065951-0.1061707,0.0312076C46.7070389,5.2913465,46.714119,8.0581856,46.7372856,8.1888056
		 M45.7162857,8.9989109c0-1.5661597,0-3.1332846,0.0003242-4.7004089c0-0.0273471,0-0.0558195,0.0234833-0.0804315
		c0.0363541-0.0284729,0.0823631-0.0189824,0.125473-0.0189824c0.6452217,0.0008044,1.2905998,0.00177,1.9356651,0.0041828
		c0.1785583,0.0006428,0.3550224,0.0246119,0.5290756,0.0632186c0.3535767,0.0788231,0.6484413,0.2570591,0.8845863,0.5313296
		c0.2835999,0.3297691,0.4398003,0.7176085,0.509613,1.1419644C49.7880516,6.3255329,49.7986641,6.7143383,49.757,7.1031432
		c-0.0382805,0.3571157-0.1397896,0.6952491-0.3159332,1.0107007c-0.2736282,0.4901485-0.6963768,0.7645807-1.2394485,0.869463
		c-0.2306786,0.0447197-0.4645691,0.0474548-0.6979866,0.0489025c-0.533905,0.0036993-1.0679665,0.0016079-1.6018677,0.0008039
		C45.847065,9.0330133,45.790123,9.0428267,45.7162857,8.9989109"/>
	<path class="st7" d="M33.048233,5.3919983c-0.0867043,0.1652064-0.5953522,1.5696988-0.6172295,1.6969409
		c0.1412392,0.0265422,1.1036797,0.0255775,1.2471695-0.0035386C33.4692116,6.5238285,33.2608948,5.9638653,33.048233,5.3919983
		 M35.4804802,9.0085144c-0.0239677,0.0287943-0.0598412,0.0234861-0.0916939,0.0236464
		c-0.3165741,0.0016088-0.6329918,0.0033779-0.9577751-0.0008039c-0.1418839-0.3656416-0.2802238-0.7217913-0.4163132-1.0723114
		c-0.1523399-0.0242901-1.7651482-0.0246119-1.9223099-0.0003219c-0.1277275,0.3476253-0.2577057,0.701201-0.3918648,1.0661988
		c-0.1738911,0.0167294-0.3456936,0.0083647-0.5168514,0.0077209c-0.1701927-0.0004826-0.3413506,0.0115824-0.5128326-0.009491
		c0.0257397-0.1397896,1.7788219-4.6498976,1.8718014-4.8196077c0.3374939-0.0072393,0.6807709-0.0083652,1.0341873,0.0011253
		c0.632515,1.5787072,1.2626152,3.1514621,1.8923912,4.7242174C35.4791946,8.9534988,35.4964066,8.9779501,35.4804802,9.0085144"/>
	<path class="st7" d="M43.4053574,7.0957599c-0.2163582-0.5734758-0.4179192-1.13553-0.644413-1.7207489
		c-0.2157173,0.5908489-0.4259682,1.1493645-0.6228638,1.7160835C42.2802849,7.1110415,43.1999359,7.1144195,43.4053574,7.0957599
		 M43.7368965,7.9586272c-0.1512108-0.0238075-1.7632179-0.0241289-1.9219894,0
		c-0.1277237,0.3473029-0.2575417,0.7007184-0.3870354,1.0531688c-0.1212921,0.0394115-0.2387199,0.0173731-0.3540573,0.0210724
		c-0.1111603,0.0035391-0.2227974,0.0032177-0.3339539,0c-0.1145363-0.0032167-0.2311592,0.0157652-0.3376503-0.0133514
		c-0.0193062-0.0400543-0.0057945-0.066597,0.0037003-0.0910482c0.613369-1.5730767,1.2275467-3.1458316,1.843811-4.7243776
		c0.353096-0.0078821,0.6962128-0.0086861,1.0333786,0c0.1024742,0.187727,1.8962555,4.677084,1.9205475,4.8028784
		c-0.0249329,0.0287943-0.0600052,0.0252562-0.0921745,0.0252562c-0.3165817,0.0008039-0.6329994,0.0004826-0.9572983,0.0004826
		C44.0116539,8.6659412,43.8733101,8.3096294,43.7368965,7.9586272"/>
	<path class="st7" d="M27.6473236,5.0658488c-0.0167274,0.1317463-0.0049858,0.275558-0.006918,0.4185648
		c-0.0020905,0.1502461-0.0036983,0.3004918,0.0004845,0.4505763c0.0038605,0.1420422-0.0191441,0.2861748,0.0152817,0.4261255
		c0.0252552,0.0049868,0.0411816,0.0109391,0.057106,0.0109391c0.2671928,0,0.5343876,0.0024128,0.8014202-0.0028958
		c0.0995731-0.0020914,0.1999531-0.0165691,0.2979164-0.0358725c0.3111095-0.0616102,0.5120277-0.3083739,0.517498-0.6283302
		c0.0053062-0.3104649-0.1829033-0.5515985-0.4930458-0.6278472c-0.0645046-0.0159249-0.1312656-0.0295982-0.197216-0.0310464
		c-0.2892323-0.0065951-0.5786247-0.0088477-0.8680191-0.0114212C27.7340279,5.0343199,27.693491,5.027885,27.6473236,5.0658488
		 M27.636385,9.0048943c-0.1452579,0.036355-0.8179874,0.0394115-0.9738636,0.008687
		c-0.0051479-0.0045042-0.0098133-0.0075607-0.0127068-0.0119038C26.646759,8.9971733,26.644022,8.991704,26.6435394,8.9863958
		c-0.0024128-0.0331383-0.0059509-0.0662756-0.0059509-0.0995741c0.0001621-1.5352745,0.0004826-3.0705485,0.0012856-4.6059828
		c0-0.0162473,0.0049877-0.0326557,0.0090084-0.0487418c0.0011272-0.0048256,0.006916-0.0083652,0.014801-0.0168905
		C26.7033806,4.1883426,26.7546959,4.19912,26.8034382,4.19912c0.6400719,0.0008044,1.2801456,0.0027351,1.9202213,0.0040221
		c0.1841888,0.0003214,0.3680534,0.0136728,0.548542,0.0456848c0.526825,0.0933003,0.9349346,0.5060744,1.042551,1.0443211
		c0.0529251,0.2649407,0.0526047,0.5306859-0.0004807,0.7954659c-0.1076183,0.5364771-0.5501518,0.9675894-1.0927429,1.0639458
		c-0.2305164,0.0408597-0.4634457,0.0596805-0.6976624,0.0609674c-0.2337341,0.001287-0.4674664,0.0006437-0.7012005,0.0019307
		c-0.0543709,0.0003214-0.1087456,0.0048256-0.1705151,0.0077214c-0.0239677,0.2078342-0.0088482,0.4069824-0.0115833,0.6054869
		c-0.0027332,0.1948047,0,0.3894486-0.0008049,0.5840926C27.6387978,8.6117458,27.6437855,8.8107328,27.636385,9.0048943"/>
	<path class="st7" d="M51.5134468,9.0292492c-0.313839,0.0059519-0.6291351,0.0096512-0.9510193-0.0032177V4.2173624
		c0.1640778-0.0373206,0.3246193-0.0147996,0.4833908-0.0178556c0.1602173-0.0028958,0.3209267-0.0062737,0.4702034,0.0032167
		c0.0397339,0.0524421,0.034584,0.0981264,0.034584,0.1420422c-0.0020905,1.5458913-0.0043411,3.0919423-0.0078812,4.6378326
		C51.5425644,8.9961119,51.5261574,9.0097847,51.5134468,9.0292492"/>
</g>
</svg>
